<svg width="24" height="24" viewBox="0 0 24 24" fill="none" xmlns="http://www.w3.org/2000/svg">
<path d="M15.531 14.2763H14.718C14.495 14.2763 14.291 14.4023 14.192 14.6013L13.441 16.1033C13.333 16.3203 13.023 16.3203 12.915 16.1033L11.078 12.4283C10.971 12.2153 10.669 12.2103 10.556 12.4203L9.71999 13.9673C9.61699 14.1573 9.41799 14.2763 9.20199 14.2763H8.46899" stroke="white" stroke-width="1.5" stroke-linecap="round" stroke-linejoin="round"/>
<path d="M4.919 12H4.001C2.719 12 1.768 13.19 2.05 14.44L2.727 17.44C2.933 18.352 3.743 19 4.678 19H5.874C6.195 19 6.432 18.703 6.362 18.39L5.07 12.669C4.067 8.226 7.445 4 12 4V4V4C16.555 4 19.933 8.226 18.93 12.669L17.639 18.39C17.568 18.703 17.806 19 18.126 19H19.322C20.257 19 21.067 18.352 21.273 17.44L21.95 14.44C22.232 13.19 21.281 12 19.999 12H19.081" stroke="white" stroke-width="1.5" stroke-linecap="round" stroke-linejoin="round"/>
</svg>
