<svg width="12" height="12" viewBox="0 0 12 12" fill="none" xmlns="http://www.w3.org/2000/svg">
<path d="M9.93728 11.9316H1.99432C0.896708 11.9316 0 11.0349 0 9.93728V1.99432C0 0.896708 0.896708 0 1.99432 0H9.93728C11.0349 0 11.9316 0.896708 11.9316 1.99432V9.93728C11.9316 11.0398 11.0398 11.9316 9.93728 11.9316Z" fill="white"/>
<path d="M5.96792 9.0313C5.14961 9.0313 4.38031 8.7128 3.8021 8.13459C3.2239 7.55639 2.9054 6.78708 2.9054 5.96878C2.9054 5.15047 3.2239 4.38116 3.8021 3.80296C4.38031 3.22475 5.14961 2.90625 5.96792 2.90625C6.78623 2.90625 7.55553 3.22475 8.13374 3.80296C8.71194 4.38116 9.03045 5.15047 9.03045 5.96878C9.03045 6.78708 8.71194 7.55639 8.13374 8.13459C7.55063 8.7128 6.78623 9.0313 5.96792 9.0313ZM5.96792 3.55796C4.64001 3.55796 3.5571 4.63596 3.5571 5.96878C3.5571 7.29669 4.63511 8.37959 5.96792 8.37959C7.29583 8.37959 8.37874 7.30159 8.37874 5.96878C8.37384 4.64086 7.29583 3.55796 5.96792 3.55796Z" fill="#DE635E"/>
<path d="M9.62757 2.8069C9.95232 2.8069 10.2156 2.54363 10.2156 2.21888C10.2156 1.89412 9.95232 1.63086 9.62757 1.63086C9.30282 1.63086 9.03955 1.89412 9.03955 2.21888C9.03955 2.54363 9.30282 2.8069 9.62757 2.8069Z" fill="#DE635E"/>
</svg>
