<svg width="13" height="13" viewBox="0 0 13 13" fill="none" xmlns="http://www.w3.org/2000/svg">
<path d="M2.72801 3.97168H0.203857V12.0211H2.72801V3.97168Z" fill="white"/>
<path d="M9.55568 3.79763C9.46262 3.786 9.36375 3.78018 9.26487 3.77437C7.85158 3.71621 7.05479 4.55371 6.77562 4.91431C6.70001 5.01318 6.66511 5.07134 6.66511 5.07134V3.99537H4.25146V12.0448H6.66511H6.77562C6.77562 11.2247 6.77562 10.4104 6.77562 9.59039C6.77562 9.14837 6.77562 8.70635 6.77562 8.26434C6.77562 7.71763 6.73491 7.13603 7.00826 6.63585C7.2409 6.2171 7.65965 6.00772 8.13075 6.00772C9.5266 6.00772 9.55568 7.2698 9.55568 7.38612C9.55568 7.39193 9.55568 7.39775 9.55568 7.39775V12.0796H12.0798V6.82778C12.0798 5.03063 11.1667 3.97211 9.55568 3.79763Z" fill="white"/>
<path d="M1.46563 2.93128C2.27508 2.93128 2.93128 2.27509 2.93128 1.46564C2.93128 0.656188 2.27508 0 1.46563 0C0.656186 0 0 0.656188 0 1.46564C0 2.27509 0.656186 2.93128 1.46563 2.93128Z" fill="white"/>
</svg>
